 http://img9.imageshack.us/img9/7366/frightnight2011.jpg

Country.......: USA, India
Genre.........: Comedy, Horror
Date release..: 14.08.2011 [World]
Director......: Craig Gillespie
Writers.......: Marti Noxon, Tom Holland
Duration......: 98 min.
More..........: http://www.imdb.com/title/tt1438176
Trailer.......: http://www.imdb.com/video/imdb/vi341875993
Trailer.......:

Pilot :
The life of a teenage Charlie Brewster (Anton Yelchin) is placed in the end as it should be: it is popular and dating the coolest girl in school. Problems arise when the home side introduced Jerry (Colin Farrell) - a seemingly great guy, but there is something disturbing, and only Charlie seems to notice. The others - including Charlie's mother (Toni Collette) - do not see the difference a new neighbor. at insightful observations of teenage neighbor comes to the only legitimate conclusion - Jerry is a vampire, and Charlie on their own must be reset to get rid of the monster in his district.

Cats :
Anton Yelchin   	 ...  	Charley Brewster
Colin Farrell 	... 	Jerry
Toni Collette 	... 	Jane Brewster
David Tennant 	... 	Peter Vincent
Imogen Poots 	... 	Amy
Christopher Mintz Plasse 	... 	Ed
Dave Franco 	... 	Mark
Reid Ewing 	... 	Ben
Will Denton 	... 	Adam
Sandra Vergara 	... 	Ginger
Emily Montague 	... 	Doris
Chris Sarandon 	... 	Jay Dee
Grace Phipps 	... 	Bee
Chelsea Tavares 	... 	Cara
Lisa Loeb 	... 	Victoria 

Data Technical :
!!! SAMPLE !!!
Audio.....: English
Subtitles.: None
Format                           : AVI
Format/Info                      : Audio Video Interleave
File size                        : 1 015 MiB
Duration                         : 1h 38mn
Overall bit rate                 : 1 444 Kbps
Video
ID                               : 0
Format                           : MPEG-4 Visual
Format profile                   : Advanced Simple@L5
Format settings, BVOP            : Yes
Format settings, QPel            : No
Format settings, GMC             : No warppoints
Format settings, Matrix          : Default (H.263)
Muxing mode                      : Packed bitstream
Codec ID                         : XVID
Codec ID/Hint                    : XviD
Duration                         : 1h 38mn
Bit rate                         : 1 309 Kbps
Width                            : 720 pixels
Height                           : 304 pixels
Display aspect ratio             : 2.35:1
Frame rate                       : 29.970 fps
Color space                      : YUV
Chroma subsampling               : 4:2:0
Bit depth                        : 8 bits
Scan type                        : Progressive
Bits/(Pixel*Frame)               : 0.200
Stream size                      : 920 MiB (91%)
Writing library                  : XviD 64
Audio
ID                               : 1
Format                           : MPEG Audio
Format version                   : Version 1
Format profile                   : Layer 3
Mode                             : Joint stereo
Mode extension                   : MS Stereo
Codec ID                         : 55
Codec ID/Hint                    : MP3
Duration                         : 1h 38mn
Bit rate mode                    : Constant
Bit rate                         : 128 Kbps
Channel(s)                       : 2 channels
Sampling rate                    : 44.1 KHz
Stream size                      : 89.9 MiB (9%)
Alignment                        : Aligned on interleaves
Interleave, duration             : 133 ms (4.00 video frames)
Interleave, preload duration     : 208 ms

Screen : 
http://img546.imageshack.us/img546/5622/frightnight2011s1.jpg 
http://img718.imageshack.us/img718/3001/frightnight2011s2.jpg 
http://img231.imageshack.us/img231/408/frightnight2011s3.jpg 
http://img202.imageshack.us/img202/3720/frightnight2011s4.jpg 
http://img710.imageshack.us/img710/7537/frightnight2011s5.jpg